HIERARCHY
ROOT Hips
{
    OFFSET   0.000000   0.000000   0.000000
    CHANNELS 6 Xposition Yposition Zposition Zrotation Xrotation Yrotation
    JOINT Chest
    {
        OFFSET   0.000000   8.007240   0.000000
        CHANNELS 3 Zrotation Xrotation Yrotation
        JOINT Chest2
        {
            OFFSET   0.000000  22.077100   0.000000
            CHANNELS 3 Zrotation Xrotation Yrotation
            JOINT Neck
            {
                OFFSET   0.000000  23.254800   0.000000
                CHANNELS 3 Zrotation Xrotation Yrotation
                JOINT Head
                {
                    OFFSET   0.000000  14.370000   1.956600
                    CHANNELS 3 Zrotation Xrotation Yrotation
                    End Site
                    {
                        OFFSET   0.000000  19.566000   0.000000
                    }
                }
            }
            JOINT LeftCollar
            {
                OFFSET   3.911900  19.017000  -0.467064
                CHANNELS 3 Zrotation Xrotation Yrotation
                JOINT LeftShoulder
                {
                    OFFSET  10.383700   0.000000   0.000000
                    CHANNELS 3 Zrotation Xrotation Yrotation
                    JOINT LeftElbow
                    {
                        OFFSET  26.662100   0.001476   0.000517
                        CHANNELS 3 Zrotation Xrotation Yrotation
                        JOINT LeftWrist
                        {
                            OFFSET  28.869000  -0.000025  -0.000106
                            CHANNELS 3 Zrotation Xrotation Yrotation
                            JOINT LeftFinger0
                            {
                                OFFSET   2.044660  -2.323460   3.252850
                                CHANNELS 3 Zrotation Xrotation Yrotation
                                JOINT LeftFinger01
                                {
                                    OFFSET   3.088130   0.000000   0.000000
                                    CHANNELS 3 Zrotation Xrotation Yrotation
                                    JOINT LeftFinger02
                                    {
                                        OFFSET   2.639460   0.000000   0.000000
                                        CHANNELS 3 Zrotation Xrotation Yrotation
                                        End Site
                                        {
                                            OFFSET   2.582190   0.000000   0.000000
                                        }
                                    }
                                }
                            }
                            JOINT LeftFinger1
                            {
                                OFFSET   8.364480   0.000000   3.252850
                                CHANNELS 3 Zrotation Xrotation Yrotation
                                JOINT LeftFinger11
                                {
                                    OFFSET   4.646930   0.000000   0.000000
                                    CHANNELS 3 Zrotation Xrotation Yrotation
                                    JOINT LeftFinger12
                                    {
                                        OFFSET   2.323460   0.000000   0.000000
                                        CHANNELS 3 Zrotation Xrotation Yrotation
                                        End Site
                                        {
                                            OFFSET   2.273050   0.000000   0.000000
                                        }
                                    }
                                }
                            }
                            JOINT LeftFinger2
                            {
                                OFFSET   8.364490   0.000015   1.078090
                                CHANNELS 3 Zrotation Xrotation Yrotation
                                JOINT LeftFinger21
                                {
                                    OFFSET   5.111620   0.000000   0.000000
                                    CHANNELS 3 Zrotation Xrotation Yrotation
                                    JOINT LeftFinger22
                                    {
                                        OFFSET   2.788160   0.000016   0.000000
                                        CHANNELS 3 Zrotation Xrotation Yrotation
                                        End Site
                                        {
                                            OFFSET   2.727660   0.000000   0.000000
                                        }
                                    }
                                }
                            }
                            JOINT LeftFinger3
                            {
                                OFFSET   7.899780   0.000017  -1.078090
                                CHANNELS 3 Zrotation Xrotation Yrotation
                                JOINT LeftFinger31
                                {
                                    OFFSET   4.646930   0.000000   0.000000
                                    CHANNELS 3 Zrotation Xrotation Yrotation
                                    JOINT LeftFinger32
                                    {
                                        OFFSET   2.323470   0.000000   0.000000
                                        CHANNELS 3 Zrotation Xrotation Yrotation
                                        End Site
                                        {
                                            OFFSET   2.273050   0.000000   0.000000
                                        }
                                    }
                                }
                            }
                            JOINT LeftFinger4
                            {
                                OFFSET   7.435090   0.000000  -3.252850
                                CHANNELS 3 Zrotation Xrotation Yrotation
                                JOINT LeftFinger41
                                {
                                    OFFSET   3.717550   0.000000   0.000000
                                    CHANNELS 3 Zrotation Xrotation Yrotation
                                    JOINT LeftFinger42
                                    {
                                        OFFSET   1.858770   0.000000   0.000000
                                        CHANNELS 3 Zrotation Xrotation Yrotation
                                        End Site
                                        {
                                            OFFSET   1.818440   0.000000   0.000000
                                        }
                                    }
                                }
                            }
                        }
                    }
                }
            }
            JOINT RightCollar
            {
                OFFSET  -3.911900  19.017000  -0.467063
                CHANNELS 3 Zrotation Xrotation Yrotation
                JOINT RightShoulder
                {
                    OFFSET -10.383700   0.000019   0.000000
                    CHANNELS 3 Zrotation Xrotation Yrotation
                    JOINT RightElbow
                    {
                        OFFSET -26.662100   0.001175   0.000102
                        CHANNELS 3 Zrotation Xrotation Yrotation
                        JOINT RightWrist
                        {
                            OFFSET -28.869000   0.000016  -0.000079
                            CHANNELS 3 Zrotation Xrotation Yrotation
                            JOINT RightFinger0
                            {
                                OFFSET  -2.044660  -2.323490   3.252850
                                CHANNELS 3 Zrotation Xrotation Yrotation
                                JOINT RightFinger01
                                {
                                    OFFSET  -3.088140   0.000000   0.000000
                                    CHANNELS 3 Zrotation Xrotation Yrotation
                                    JOINT RightFinger02
                                    {
                                        OFFSET  -2.639460   0.000000   0.000000
                                        CHANNELS 3 Zrotation Xrotation Yrotation
                                        End Site
                                        {
                                            OFFSET  -2.582190   0.000000   0.000000
                                        }
                                    }
                                }
                            }
                            JOINT RightFinger1
                            {
                                OFFSET  -8.364480   0.000000   3.252850
                                CHANNELS 3 Zrotation Xrotation Yrotation
                                JOINT RightFinger11
                                {
                                    OFFSET  -4.646930   0.000000   0.000000
                                    CHANNELS 3 Zrotation Xrotation Yrotation
                                    JOINT RightFinger12
                                    {
                                        OFFSET  -2.323470   0.000000   0.000000
                                        CHANNELS 3 Zrotation Xrotation Yrotation
                                        End Site
                                        {
                                            OFFSET  -2.273050   0.000000   0.000000
                                        }
                                    }
                                }
                            }
                            JOINT RightFinger2
                            {
                                OFFSET  -8.364480   0.000000   1.078090
                                CHANNELS 3 Zrotation Xrotation Yrotation
                                JOINT RightFinger21
                                {
                                    OFFSET  -5.111620   0.000000   0.000000
                                    CHANNELS 3 Zrotation Xrotation Yrotation
                                    JOINT RightFinger22
                                    {
                                        OFFSET  -2.788160   0.000000   0.000000
                                        CHANNELS 3 Zrotation Xrotation Yrotation
                                        End Site
                                        {
                                            OFFSET  -2.727660   0.000000   0.000000
                                        }
                                    }
                                }
                            }
                            JOINT RightFinger3
                            {
                                OFFSET  -7.899780   0.000000  -1.078090
                                CHANNELS 3 Zrotation Xrotation Yrotation
                                JOINT RightFinger31
                                {
                                    OFFSET  -4.646930   0.000000   0.000000
                                    CHANNELS 3 Zrotation Xrotation Yrotation
                                    JOINT RightFinger32
                                    {
                                        OFFSET  -2.323470   0.000000   0.000000
                                        CHANNELS 3 Zrotation Xrotation Yrotation
                                        End Site
                                        {
                                            OFFSET  -2.273050   0.000000   0.000000
                                        }
                                    }
                                }
                            }
                            JOINT RightFinger4
                            {
                                OFFSET  -7.435090   0.000000  -3.252850
                                CHANNELS 3 Zrotation Xrotation Yrotation
                                JOINT RightFinger41
                                {
                                    OFFSET  -3.717550   0.000000   0.000000
                                    CHANNELS 3 Zrotation Xrotation Yrotation
                                    JOINT RightFinger42
                                    {
                                        OFFSET  -1.858770   0.000000   0.000000
                                        CHANNELS 3 Zrotation Xrotation Yrotation
                                        End Site
                                        {
                                            OFFSET  -1.818440   0.000000   0.000000
                                        }
                                    }
                                }
                            }
                        }
                    }
                }
            }
        }
    }
    JOINT LeftHip
    {
        OFFSET   9.783040   0.000000   0.000000
        CHANNELS 3 Zrotation Xrotation Yrotation
        JOINT LeftKnee
        {
            OFFSET   0.000032 -41.789100  -0.002222
            CHANNELS 3 Zrotation Xrotation Yrotation
            JOINT LeftAnkle
            {
                OFFSET   0.000087 -41.133200  -0.000135
                CHANNELS 3 Zrotation Xrotation Yrotation
                JOINT LeftToe
                {
                    OFFSET   0.000000  -6.358960  14.674500
                    CHANNELS 3 Zrotation Xrotation Yrotation
                    End Site
                    {
                        OFFSET   0.000000   0.000000   3.913200
                    }
                }
            }
        }
    }
    JOINT RightHip
    {
        OFFSET  -9.783040   0.000000   0.000000
        CHANNELS 3 Zrotation Xrotation Yrotation
        JOINT RightKnee
        {
            OFFSET   0.000047 -41.789100  -0.000896
            CHANNELS 3 Zrotation Xrotation Yrotation
            JOINT RightAnkle
            {
                OFFSET  -0.000117 -41.133300  -0.000248
                CHANNELS 3 Zrotation Xrotation Yrotation
                JOINT RightToe
                {
                    OFFSET   0.000000  -6.358970  14.674500
                    CHANNELS 3 Zrotation Xrotation Yrotation
                    End Site
                    {
                        OFFSET   0.000000   0.000000   3.913200
                    }
                }
            }
        }
    }
}
MOTION
Frames: 4
Frame Time:   0.016667
 -8.780000  88.496800  -0.845661  -2.565030 -18.444800  -7.303570   2.051990   9.697170  -2.772360   4.687280  19.274000  -6.032270   1.214880  -1.855900   0.033435   2.001320  -3.758560   2.805310  -5.299530   4.651240  10.645600 -77.486800 -14.877000   5.442480   7.664910  -5.561220 -76.261900  32.303800 -44.342400  -0.258187  47.120800  34.035300 -61.542100 -21.104900  -0.004077   0.000103  -5.552450  -0.001747  -0.007124 -21.975500  -0.968427   2.397650 -17.996200  -0.001545   0.002537 -12.597400  -0.001981  -0.000189 -43.335400  -3.578710   3.786480 -54.441800  -0.003104   0.003536 -38.265700   0.006273   0.001345 -23.436600  -3.287020   7.535990 -23.652900  -0.002493  -0.000316 -15.752800  -0.002503  -0.000719 -25.457600  -4.177940   8.699750 -38.662700  -0.000864  -0.000307 -25.749400   0.001178   0.000697   2.145700   4.527490   6.840870  70.562000 -21.363000  -8.250240  -2.961750 -14.167600  74.041200 -47.996200 -40.543900  19.066300 -43.268800  34.849800  75.417900  19.415900   0.000365  -0.000061   4.707990  -0.005743   0.007343  22.206700  -2.224330  -5.425720  18.255700  -0.001071  -0.001390  12.779000   0.000000  -0.001339  22.037900  -2.554330  -6.276510  22.178500   0.001669  -0.005769  14.770900   0.001080  -0.004244  23.118400  -4.397400 -10.177600  23.510600   0.000000   0.000813  15.658100   0.000404   0.000220  21.186900  -4.049240 -10.319800  32.329800  -0.000348   0.001116  21.531600  -0.000168  -0.011352   7.165390  15.612900   0.705428   2.068680  14.176100  12.484600  -8.967070  -9.924210   0.436925  -0.000000   0.000000   0.000000   4.681500  14.055500  -4.570740  -2.200000  13.833900 -10.348300   0.003388  -9.283320   3.852580   0.000000   0.000000  -0.000000
 -8.769880  88.513900  -0.875167  -2.426060 -18.180900  -6.886270   2.057370   9.577000  -2.879550   4.706970  19.028800  -6.243800   1.179600  -1.965720   0.033655   1.943990  -3.981200   3.759360  -5.337370   4.558420  10.794100 -78.191200 -14.231700   5.991800   7.355540  -4.994990 -76.510400  32.651400 -44.367100  -0.536889  47.139900  33.932900 -61.251900 -21.062600  -0.004180   0.000137  -5.531320  -0.001738  -0.007177 -21.973300  -0.955748   2.367460 -17.993600  -0.001546   0.002507 -12.595600  -0.001942  -0.000163 -43.312700  -3.578980   3.789130 -54.442000  -0.003102   0.003527 -38.259700   0.006418   0.001376 -23.469500  -3.297940   7.553250 -23.685400  -0.002496  -0.000332 -15.774500  -0.002459  -0.000728 -25.451800  -4.189640   8.726550 -38.656100  -0.000857  -0.000294 -25.745000   0.001218   0.000679   2.366260   4.749070   6.911860  71.184300 -21.399700  -8.483940  -2.599980 -13.088100  74.392600 -47.787300 -40.395100  19.641900 -43.180500  34.519000  74.942200  19.370600   0.000390  -0.000031   4.685330  -0.005939   0.007341  22.083700  -2.284540  -5.608090  18.160000  -0.001102  -0.001331  12.712000  -0.000059  -0.001322  21.895700  -2.639200  -6.533410  22.046300   0.001750  -0.005775  14.682900   0.001077  -0.004251  23.011500  -4.466620 -10.389400  23.418600  -0.000035   0.000837  15.596800   0.000379   0.000272  21.063400  -4.108240 -10.534900  32.162700  -0.000342   0.001137  21.420300  -0.000134  -0.011333   7.145510  15.291500   0.638030   2.134980  14.052400  12.327500  -8.960640  -9.801940   0.326859  -0.000000   0.000000   0.000000   4.670710  13.935800  -4.349860  -2.037000  13.548600 -10.722600  -0.052897  -9.186520   3.618310  -0.000000   0.000000  -0.000000
 -8.761050  88.533700  -0.901889  -2.285590 -17.920800  -6.458700   2.058040   9.466860  -2.968230   4.715660  18.804700  -6.417370   1.141490  -2.081360   0.033852   1.883090  -4.215920   4.556020  -5.350560   4.406540  10.899000 -78.849200 -13.630600   6.486010   7.085610  -4.391020 -76.660000  33.130400 -44.447800  -0.694568  46.972300  33.735700 -60.851200 -21.037100  -0.004287   0.000173  -5.518550  -0.001730  -0.007229 -21.971000  -0.943068   2.337260 -17.991000  -0.001546   0.002475 -12.593800  -0.001903  -0.000140 -43.238400  -3.579220   3.798770 -54.442100  -0.003100   0.003521 -38.239900   0.006563   0.001408 -23.476900  -3.308860   7.570510 -23.695000  -0.002502  -0.000351 -15.780900  -0.002413  -0.000738 -25.445900  -4.201330   8.753340 -38.649500  -0.000849  -0.000282 -25.740600   0.001257   0.000661   2.591540   4.923090   6.942030  71.806900 -21.458700  -8.738270  -2.232250 -11.953500  74.728100 -47.721500 -40.318200  19.995200 -43.094800  34.144200  74.411400  19.313400   0.000405  -0.000000   4.656680  -0.006135   0.007338  21.951700  -2.343990  -5.792740  18.057200  -0.001127  -0.001274  12.640100  -0.000147  -0.001304  21.745900  -2.724850  -6.796620  21.907200   0.001830  -0.005781  14.590200   0.001075  -0.004257  22.902100  -4.540500 -10.613700  23.323500  -0.000090   0.000864  15.533500   0.000363   0.000322  20.937800  -4.171010 -10.762800  31.995500  -0.000337   0.001160  21.309000  -0.000103  -0.011316   7.120990  14.984300   0.574538   2.203140  13.904400  12.179000  -8.953920  -9.660460   0.197812  -0.000000   0.000000   0.000000   4.642390  13.826600  -4.153470  -1.871240  13.251500 -11.100600  -0.103158  -9.088620   3.408890  -0.000000   0.000000   0.000000
 -8.744370  88.554200  -0.921173  -2.145100 -17.666900  -6.042590   2.059650   9.351390  -3.043510   4.722670  18.570600  -6.563670   1.092330  -2.185720   0.034018   1.803360  -4.428070   5.248930  -5.372350   4.293390  11.033300 -79.427900 -13.181200   6.911970   6.787050  -3.578460 -76.780200  33.636300 -44.645200  -0.735063  46.778500  33.426700 -60.676000 -20.971500  -0.004413   0.000190  -5.485710  -0.001733  -0.007290 -22.010900  -0.870043   2.154480 -18.021200  -0.001536   0.002432 -12.614900  -0.001871  -0.000119 -43.097300  -3.579390   3.818180 -54.439900  -0.003111   0.003513 -38.202400   0.006702   0.001434 -23.487300  -3.282200   7.505400 -23.707200  -0.002510  -0.000383 -15.789000  -0.002380  -0.000750 -25.529300  -4.191880   8.706720 -38.777100  -0.000849  -0.000278 -25.825600   0.001309   0.000645   2.772380   5.091740   6.970770  72.450200 -21.471900  -9.046540  -1.879220 -10.843400  75.063000 -47.795700 -40.410600  20.089100 -42.941000  33.704400  73.842100  19.247900   0.000404  -0.000036   4.623940  -0.006332   0.007345  21.849700  -2.387640  -5.937100  17.977400  -0.001160  -0.001225  12.584200  -0.000191  -0.001288  21.630200  -2.806150  -7.040780  21.802400   0.001922  -0.005790  14.520400   0.001082  -0.004264  22.868200  -4.627050 -10.834900  23.304500  -0.000126   0.000889  15.520800   0.000329   0.000377  20.930700  -4.254570 -10.985000  32.010500  -0.000329   0.001190  21.319000  -0.000088  -0.011300   7.086410  14.695700   0.525503   2.268380  13.733500  12.054900  -8.944860  -9.495710   0.046789  -0.000000   0.000000   0.000000   4.591810  13.721900  -3.995930  -1.711060  12.953000 -11.453800  -0.126492  -8.988930   3.241250   0.000000   0.000000  -0.000000
